<svg xmlns="http://www.w3.org/2000/svg" width="1200" height="470" viewBox="0 0 1200 470">
  <rect width="1200" height="470" fill="#fff"/>
  <!-- Ruling Grid Lines -->
  <g stroke="#888" stroke-width="1.5" fill="none">
    <!-- Outer boundary -->
    <rect x="20" y="30" width="1150" height="420"/>
    <!-- Horizontal row dividers -->
    <path d="M20 70H1170 M20 150H1170 M20 230H1170 M20 310H1170 M20 390H1170"/>
    <!-- Vertical column dividers -->
    <path d="M110 30V450 M200 30V450 M290 30V450 M510 30V450 M620 30V450 M730 30V450 M830 30V450 M1050 30V450"/>
    <!-- Unmerged internal dividers for single-period slots on Mon & Fri -->
    <path d="M940 70V150 M940 390V450"/>
  </g>
  <!-- Text Labels -->
  <g font-family="Tahoma, Arial, sans-serif" fill="#111">
    <text x="120" y="24" font-size="16" font-weight="700">ตารางเรียนชั้นมัธยมศึกษาปีที่ 5/1 ภาคเรียนที่ 1 ปีการศึกษา 2569 โรงเรียนตัวอย่างวิทยา</text>
    <text x="25" y="55" font-size="14" font-weight="700">วัน / เวลา</text>
    <text x="125" y="55" font-size="12">07:30-07:45</text>
    <text x="215" y="55" font-size="12">07:45-08:00</text>
    <text x="340" y="55" font-size="13" font-weight="700">08:00-09:00</text>
    <text x="445" y="55" font-size="13" font-weight="700">09:00-10:00</text>
    <text x="545" y="55" font-size="13" font-weight="700">10:00-11:00</text>
    <text x="655" y="55" font-size="13" font-weight="700">11:00-12:00</text>
    <text x="745" y="55" font-size="12">12:00-13:00</text>
    <text x="875" y="55" font-size="13" font-weight="700">13:00-14:00</text>
    <text x="985" y="55" font-size="13" font-weight="700">14:00-15:00</text>
    <text x="1085" y="55" font-size="13" font-weight="700">15:00-16:00</text>

    <!-- Monday -->
    <text x="35" y="115" font-size="16" font-weight="700">จันทร์</text>
    <text x="122" y="115" font-size="11">เข้าแถวเคารพธงชาติ</text>
    <text x="225" y="115" font-size="12">โฮมรูม</text>
    <text x="350" y="102" font-size="14" font-weight="700">คณิตศาสตร์พื้นฐาน</text><text x="350" y="125" font-size="12">ครูสมชาย</text>
    <text x="540" y="102" font-size="13" font-weight="700">ภาษาไทย</text><text x="540" y="125" font-size="12">ครูสมศรี</text>
    <text x="645" y="102" font-size="13" font-weight="700">ภาษาอังกฤษ</text><text x="645" y="125" font-size="12">Teacher John</text>
    <text x="742" y="115" font-size="11">พักรับประทานอาหารกลางวัน</text>
    <text x="860" y="102" font-size="13" font-weight="700">สังคมศึกษา</text><text x="860" y="125" font-size="12">ครูวิชัย</text>
    <text x="965" y="102" font-size="13" font-weight="700">ประวัติศาสตร์</text><text x="965" y="125" font-size="12">ครูประภา</text>
    <text x="1085" y="102" font-size="13" font-weight="700">สุขศึกษา</text><text x="1085" y="125" font-size="12">ครูอำนาจ</text>

    <!-- Tuesday -->
    <text x="35" y="195" font-size="16" font-weight="700">อังคาร</text>
    <text x="122" y="195" font-size="11">เข้าแถวเคารพธงชาติ</text>
    <text x="225" y="195" font-size="12">โฮมรูม</text>
    <text x="345" y="182" font-size="14" font-weight="700">วิทยาศาสตร์กายภาพ</text><text x="345" y="205" font-size="12">ครูจินดา</text>
    <text x="550" y="182" font-size="13" font-weight="700">ศิลปะ</text><text x="550" y="205" font-size="12">ครูมานะ</text>
    <text x="660" y="182" font-size="13" font-weight="700">ดนตรี</text><text x="660" y="205" font-size="12">ครูวิภา</text>
    <text x="742" y="195" font-size="11">พักรับประทานอาหารกลางวัน</text>
    <text x="900" y="182" font-size="14" font-weight="700">คอมพิวเตอร์</text><text x="900" y="205" font-size="12">ครูชลธิชา</text>
    <text x="1075" y="182" font-size="13" font-weight="700">การงานอาชีพ</text><text x="1075" y="205" font-size="12">ครูอรุณ</text>

    <!-- Wednesday -->
    <text x="45" y="275" font-size="16" font-weight="700">พุธ</text>
    <text x="122" y="275" font-size="11">เข้าแถวเคารพธงชาติ</text>
    <text x="225" y="275" font-size="12">โฮมรูม</text>
    <text x="375" y="262" font-size="14" font-weight="700">เคมี</text><text x="375" y="285" font-size="12">ครูณัฐ</text>
    <text x="545" y="262" font-size="13" font-weight="700">ฟิสิกส์</text><text x="545" y="285" font-size="12">ครูเกรียง</text>
    <text x="655" y="262" font-size="13" font-weight="700">ชีววิทยา</text><text x="655" y="285" font-size="12">ครูพิม</text>
    <text x="742" y="275" font-size="11">พักรับประทานอาหารกลางวัน</text>
    <text x="890" y="262" font-size="14" font-weight="700">ปฏิบัติการวิทย์</text><text x="890" y="285" font-size="12">ครูณัฐ</text>
    <text x="1065" y="262" font-size="13" font-weight="700">ภาษาอังกฤษเสริม</text><text x="1065" y="285" font-size="12">Teacher Mary</text>

    <!-- Thursday -->
    <text x="25" y="355" font-size="15" font-weight="700">พฤหัสบดี</text>
    <text x="122" y="355" font-size="11">เข้าแถวเคารพธงชาติ</text>
    <text x="225" y="355" font-size="12">โฮมรูม</text>
    <text x="345" y="342" font-size="14" font-weight="700">คณิตศาสตร์เพิ่มเติม</text><text x="345" y="365" font-size="12">ครูสมชาย</text>
    <text x="525" y="342" font-size="13" font-weight="700">ภาษาไทยวรรณคดี</text><text x="525" y="365" font-size="12">ครูสมศรี</text>
    <text x="650" y="342" font-size="13" font-weight="700">เศรษฐศาสตร์</text><text x="650" y="365" font-size="12">ครูวิชัย</text>
    <text x="742" y="355" font-size="11">พักรับประทานอาหารกลางวัน</text>
    <text x="900" y="342" font-size="14" font-weight="700">การงานอาชีพ</text><text x="900" y="365" font-size="12">ครูสมพร</text>
    <text x="1085" y="342" font-size="13" font-weight="700">พลศึกษา</text><text x="1085" y="365" font-size="12">ครูอำนาจ</text>

    <!-- Friday -->
    <text x="35" y="435" font-size="16" font-weight="700">ศุกร์</text>
    <text x="122" y="435" font-size="11">เข้าแถวเคารพธงชาติ</text>
    <text x="225" y="435" font-size="12">โฮมรูม</text>
    <text x="325" y="422" font-size="13" font-weight="700">ภาษาอังกฤษเพื่อการสื่อสาร</text><text x="325" y="445" font-size="12">Teacher David</text>
    <text x="535" y="422" font-size="13" font-weight="700">คณิตศาสตร์</text><text x="535" y="445" font-size="12">ครูสมชาย</text>
    <text x="650" y="422" font-size="13" font-weight="700">หน้าที่พลเมือง</text><text x="650" y="445" font-size="12">ครูประภา</text>
    <text x="742" y="435" font-size="11">พักรับประทานอาหารกลางวัน</text>
    <text x="865" y="422" font-size="13" font-weight="700">ภูมิศาสตร์</text><text x="865" y="445" font-size="12">ครูวิชัย</text>
    <text x="965" y="422" font-size="13" font-weight="700">โลก ดาราศาสตร์</text><text x="965" y="445" font-size="12">ครูจินดา</text>
    <text x="1075" y="422" font-size="13" font-weight="700">ทัศนศิลป์</text><text x="1075" y="445" font-size="12">ครูมานะ</text>
  </g>
</svg>
